<svg width="510" height="129" xmlns="http://www.w3.org/2000/svg">
 <!-- Created with Method Draw - http://github.com/duopixel/Method-Draw/ -->
 <g>
  <title>Layer 1</title>
 </g>
 <g>
  <title>background</title>
  <text xml:space="preserve" text-anchor="start" font-family="'Great Vibes'" font-size="60" id="svg_2" y="78.05832" x="116.60574" fill-opacity="null" stroke-opacity="null" stroke-width="0" stroke="#0f0f00" fill="#000000">St. Isatis Library</text>
  <path id="svg_3" d="m0.09317,92.18652c-0.03083,-30.70413 -0.06164,-61.40827 -0.09247,-92.11239c27.83153,0.3529 55.7811,-0.836 83.51839,0.90619c13.52595,3.97936 11.57667,28.75133 11.35702,47.25407c-0.59334,13.95334 7.90277,41.61417 -14.16458,45.77183c-11.00175,0.00049 -11.04505,3.89558 -9.92209,10.94157c1.30318,10.55578 -2.48007,34.20206 -20.55336,19.21418l-50.14292,-31.97544l0.00001,0zm85.17791,-10.03717c0.04472,-27.59908 -0.32832,-51.14507 -2.17474,-69.32892c-16.40541,-6.1852 -38.57368,-3.17513 -57.13549,-3.26912c-7.2966,2.94157 17.30874,12.70901 22.5273,16.49895c19.81153,8.14895 25.72243,22.96861 22.30135,39.71701c0,6.51506 0,13.03013 0,19.54518c3.65342,-0.00366 11.2118,-1.50405 14.48158,-3.16312l-0.00001,0.00002z" fill-opacity="null" stroke-opacity="null" stroke-width="0" stroke="#0f0f00" fill="#000000"/>
 </g>
</svg>